<?xml version="1.0" ?><svg viewBox="0 0 32 32" xmlns="http://www.w3.org/2000/svg"><g id="Dountdown"><path d="M30,15.25h-.29a13.58,13.58,0,0,0-3.48-8.42l.2-.2a.75.75,0,0,0-1.06-1.06l-4.69,4.69a7.33,7.33,0,0,0-3.93-1.64V2a.75.75,0,0,0-1.5,0v.29a13.75,13.75,0,0,0-13,13H2a.75.75,0,0,0,0,1.5h.29a13.75,13.75,0,0,0,13,13V30a.75.75,0,0,0,1.5,0v-.29a13.75,13.75,0,0,0,13-13H30a.75.75,0,0,0,0-1.5ZM16,10.09h0A5.92,5.92,0,1,1,10.08,16,5.92,5.92,0,0,1,16,10.09Zm.75,18.12V28a.75.75,0,0,0-1.5,0v.21A12.23,12.23,0,0,1,3.79,16.75H4a.75.75,0,0,0,0-1.5H3.79A12.25,12.25,0,0,1,15.25,3.77V8.62A7.42,7.42,0,1,0,23.42,16a7.36,7.36,0,0,0-1.68-4.68l3.44-3.43a12.15,12.15,0,0,1,3,7.36H28a.75.75,0,0,0,0,1.5h.21A12.23,12.23,0,0,1,16.75,28.21Z"/><path d="M16.47,18.19H14.41a.75.75,0,0,0,0,1.5h2.06a2.18,2.18,0,0,0,2.13-2.22A2.29,2.29,0,0,0,18.06,16a2.3,2.3,0,0,0,.54-1.45,2.2,2.2,0,0,0-2.15-2.24h-2a.75.75,0,0,0,0,1.5h2a.69.69,0,0,1,.65.73.68.68,0,0,1-.65.71h-2a.75.75,0,0,0,0,1.5h2.06a.73.73,0,0,1,0,1.44Z"/><path d="M25.43,12.91a.76.76,0,0,0,.44-1h0a.77.77,0,0,0-.67-.49h0a.75.75,0,1,0,.23,1.46Z"/><path d="M12.49,7.53a.75.75,0,1,0-1-.41A.75.75,0,0,0,12.49,7.53Z"/><path d="M9.51,9.52a.75.75,0,0,0,0-1.06.77.77,0,0,0-1.06,0,.75.75,0,0,0,0,1.06A.75.75,0,0,0,9.51,9.52Z"/><path d="M7.12,11.51h0a.71.71,0,0,0-.28-.06.76.76,0,0,0-.7.47.75.75,0,0,0,.41,1,.75.75,0,0,0,1-.41h0A.75.75,0,0,0,7.12,11.51Z"/><circle cx="6.08" cy="16" r="0.75"/><path d="M6.84,19.05a.8.8,0,0,0-.3.06.75.75,0,1,0,.58,1.38.76.76,0,0,0,.41-1A.75.75,0,0,0,6.84,19.05Z"/><path d="M9,22.26a.8.8,0,0,0-.53.23.75.75,0,0,0,1.07,1.05A.76.76,0,0,0,9,22.26Z"/><path d="M12.22,24.42a.74.74,0,0,0-.7.45.73.73,0,0,0,.38,1h0a.75.75,0,0,0,1-.38h0A.75.75,0,0,0,12.22,24.42Z"/><circle cx="16" cy="25.92" r="0.75"/><path d="M20.5,24.9a.75.75,0,1,0-.44,1h0a.76.76,0,0,0,.44-1Z"/><path d="M22.48,22.49a.75.75,0,1,0,1.06,1.06.75.75,0,0,0-1.06-1.06Z"/><path d="M25.47,19.11h0a.75.75,0,0,0-1,.39.74.74,0,0,0,.38,1h0a.75.75,0,0,0,1-.39h0A.75.75,0,0,0,25.47,19.11Z"/><circle cx="25.92" cy="16" r="0.75"/></g></svg>